<mxfile host="app.diagrams.net" modified="2023-07-12T05:36:25.010Z" agent="Mozilla/5.0 (Windows NT 10.0; Win64; x64) AppleWebKit/537.36 (KHTML, like Gecko) Chrome/114.0.0.0 Safari/537.36" version="21.6.1" etag="n6FA6eCjO4JasKxtP2AQ" type="github">
  <diagram name="第1頁" id="mknFNlQVkKzG0ph9rS3D">
    <mxGraphModel>
      <root>
        <mxCell id="0" />
        <mxCell id="1" parent="0" />
      </root>
    </mxGraphModel>
  </diagram>
</mxfile>
